<svg width="52" height="27" viewBox="0 0 52 27" fill="none" xmlns="http://www.w3.org/2000/svg">
<g clip-path="url(#clip0)">
<g filter="url(#filter0_d)">
<path fill-rule="evenodd" clip-rule="evenodd" d="M0.823364 10C0.823364 4.47715 5.30052 0 10.8234 0H41.2147C46.7376 0 51.2148 4.47715 51.2148 10V14C51.2148 19.5228 46.7376 24 41.2148 24H30.4654L25.525 27L20.5847 24H10.8234C5.30051 24 0.823364 19.5228 0.823364 14V10Z" fill="white"/>
</g>
<path d="M12.9925 17V13.6719H16.4319V12.2715H12.9925V10.0039H16.7601V8.54492H11.223V17H12.9925ZM17.6624 17H19.3734V13.4902C19.3734 12.6055 19.8655 12.0898 20.7093 12.0898C20.9554 12.0898 21.1898 12.1309 21.3304 12.1895V10.6836C21.2132 10.6484 21.0433 10.6191 20.8441 10.6191C20.1058 10.6191 19.5726 11.0527 19.3499 11.8496H19.3148V10.7188H17.6624V17ZM24.6409 11.8496C25.4026 11.8496 25.9241 12.4004 25.9593 13.2031H23.2933C23.3519 12.418 23.8909 11.8496 24.6409 11.8496ZM25.9827 15.0781C25.8245 15.5586 25.3441 15.8691 24.7171 15.8691C23.8441 15.8691 23.2757 15.2539 23.2757 14.3574V14.252H27.6058V13.7305C27.6058 11.8203 26.4515 10.584 24.6234 10.584C22.7659 10.584 21.5941 11.8848 21.5941 13.8887C21.5941 15.8984 22.7542 17.1348 24.6878 17.1348C26.2405 17.1348 27.3655 16.3086 27.553 15.0781H25.9827ZM31.3089 11.8496C32.0706 11.8496 32.5921 12.4004 32.6273 13.2031H29.9612C30.0198 12.418 30.5589 11.8496 31.3089 11.8496ZM32.6507 15.0781C32.4925 15.5586 32.012 15.8691 31.3851 15.8691C30.512 15.8691 29.9437 15.2539 29.9437 14.3574V14.252H34.2737V13.7305C34.2737 11.8203 33.1194 10.584 31.2913 10.584C29.4339 10.584 28.262 11.8848 28.262 13.8887C28.262 15.8984 29.4222 17.1348 31.3558 17.1348C32.9085 17.1348 34.0335 16.3086 34.221 15.0781H32.6507Z" fill="black"/>
<path fill-rule="evenodd" clip-rule="evenodd" d="M41.2228 18.4654C40.8346 18.8583 40.2052 18.8583 39.8171 18.4654L36.693 15.3036C36.0733 14.6765 36.5006 13.6035 37.3768 13.5865L38.5651 13.5634V8C38.5651 7.44771 39.0128 7 39.5651 7H41.6337C42.186 7 42.6337 7.44771 42.6337 8V13.4842L43.7473 13.4626C44.6419 13.4452 45.102 14.5394 44.4693 15.1797L41.2228 18.4654Z" fill="#EE304E"/>
</g>
<defs>
<filter id="filter0_d" x="-3.17664" y="-2" width="58.3914" height="35" filterUnits="userSpaceOnUse" color-interpolation-filters="sRGB">
<feFlood flood-opacity="0" result="BackgroundImageFix"/>
<feColorMatrix in="SourceAlpha" type="matrix" values="0 0 0 0 0 0 0 0 0 0 0 0 0 0 0 0 0 0 127 0" result="hardAlpha"/>
<feOffset dy="2"/>
<feGaussianBlur stdDeviation="2"/>
<feColorMatrix type="matrix" values="0 0 0 0 0.352925 0 0 0 0 0 0 0 0 0 0.487432 0 0 0 0.258332 0"/>
<feBlend mode="normal" in2="BackgroundImageFix" result="effect1_dropShadow"/>
<feBlend mode="normal" in="SourceGraphic" in2="effect1_dropShadow" result="shape"/>
</filter>
<clipPath id="clip0">
<rect width="50.3914" height="27" fill="white" transform="translate(0.823364)"/>
</clipPath>
</defs>
</svg>
