<svg width="52" height="27" viewBox="0 0 52 27" fill="none" xmlns="http://www.w3.org/2000/svg">
<g clip-path="url(#clip0)">
<g filter="url(#filter0_d)">
<path fill-rule="evenodd" clip-rule="evenodd" d="M0.823364 10C0.823364 4.47715 5.30052 0 10.8234 0H41.2147C46.7376 0 51.2148 4.47715 51.2148 10V14C51.2148 19.5228 46.7376 24 41.2148 24H30.4654L25.525 27L20.5847 24H10.8234C5.30051 24 0.823364 19.5228 0.823364 14V10Z" fill="white"/>
</g>
<path d="M11.1937 8.54492V17H12.9632V14.334H14.5452C16.3265 14.334 17.5628 13.1738 17.5628 11.4395C17.5628 9.69922 16.3675 8.54492 14.6331 8.54492H11.1937ZM12.9632 9.94531H14.1644C15.178 9.94531 15.764 10.4844 15.764 11.4453C15.764 12.4121 15.1722 12.9512 14.1585 12.9512H12.9632V9.94531ZM20.3812 9.92773H21.887C22.7659 9.92773 23.3167 10.4551 23.3167 11.2754C23.3167 12.1133 22.7952 12.623 21.9046 12.623H20.3812V9.92773ZM20.3812 13.9062H21.7991L23.3753 17H25.3792L23.598 13.6426C24.5706 13.2617 25.1331 12.3242 25.1331 11.2402C25.1331 9.57031 24.0198 8.54492 22.0745 8.54492H18.6116V17H20.3812V13.9062ZM30.1136 8.39844C27.6058 8.39844 26.0355 10.0801 26.0355 12.7754C26.0355 15.4648 27.6058 17.1465 30.1136 17.1465C32.6155 17.1465 34.1917 15.4648 34.1917 12.7754C34.1917 10.0801 32.6155 8.39844 30.1136 8.39844ZM30.1136 9.875C31.4964 9.875 32.3812 11 32.3812 12.7754C32.3812 14.5449 31.4964 15.6641 30.1136 15.6641C28.7249 15.6641 27.8401 14.5449 27.8401 12.7754C27.8401 11 28.7308 9.875 30.1136 9.875Z" fill="black"/>
<path fill-rule="evenodd" clip-rule="evenodd" d="M41.2228 18.4654C40.8346 18.8583 40.2052 18.8583 39.8171 18.4654L36.693 15.3036C36.0733 14.6765 36.5006 13.6035 37.3768 13.5865L38.5651 13.5634V8C38.5651 7.44771 39.0128 7 39.5651 7H41.6337C42.186 7 42.6337 7.44771 42.6337 8V13.4842L43.7473 13.4626C44.6419 13.4452 45.102 14.5394 44.4693 15.1797L41.2228 18.4654Z" fill="#04CD00"/>
</g>
<defs>
<filter id="filter0_d" x="-3.17664" y="-2" width="58.3914" height="35" filterUnits="userSpaceOnUse" color-interpolation-filters="sRGB">
<feFlood flood-opacity="0" result="BackgroundImageFix"/>
<feColorMatrix in="SourceAlpha" type="matrix" values="0 0 0 0 0 0 0 0 0 0 0 0 0 0 0 0 0 0 127 0" result="hardAlpha"/>
<feOffset dy="2"/>
<feGaussianBlur stdDeviation="2"/>
<feColorMatrix type="matrix" values="0 0 0 0 0.352925 0 0 0 0 0 0 0 0 0 0.487432 0 0 0 0.258332 0"/>
<feBlend mode="normal" in2="BackgroundImageFix" result="effect1_dropShadow"/>
<feBlend mode="normal" in="SourceGraphic" in2="effect1_dropShadow" result="shape"/>
</filter>
<clipPath id="clip0">
<rect width="50.3914" height="27" fill="white" transform="translate(0.823364)"/>
</clipPath>
</defs>
</svg>
